<svg id="visual" viewBox="0 0 900 600" width="900" height="600" xmlns="http://www.w3.org/2000/svg" xmlns:xlink="http://www.w3.org/1999/xlink" version="1.1"><rect x="0" y="0" width="900" height="600" fill="#67E26D"></rect><defs><linearGradient id="grad1_0" x1="33.3%" y1="0%" x2="100%" y2="100%"><stop offset="20%" stop-color="#003855" stop-opacity="1"></stop><stop offset="80%" stop-color="#003855" stop-opacity="1"></stop></linearGradient></defs><defs><linearGradient id="grad1_1" x1="33.3%" y1="0%" x2="100%" y2="100%"><stop offset="20%" stop-color="#003855" stop-opacity="1"></stop><stop offset="80%" stop-color="#006281" stop-opacity="1"></stop></linearGradient></defs><defs><linearGradient id="grad1_2" x1="33.3%" y1="0%" x2="100%" y2="100%"><stop offset="20%" stop-color="#008f95" stop-opacity="1"></stop><stop offset="80%" stop-color="#006281" stop-opacity="1"></stop></linearGradient></defs><defs><linearGradient id="grad1_3" x1="33.3%" y1="0%" x2="100%" y2="100%"><stop offset="20%" stop-color="#008f95" stop-opacity="1"></stop><stop offset="80%" stop-color="#00ba8d" stop-opacity="1"></stop></linearGradient></defs><defs><linearGradient id="grad1_4" x1="33.3%" y1="0%" x2="100%" y2="100%"><stop offset="20%" stop-color="#67e26d" stop-opacity="1"></stop><stop offset="80%" stop-color="#00ba8d" stop-opacity="1"></stop></linearGradient></defs><defs><linearGradient id="grad2_0" x1="0%" y1="0%" x2="66.7%" y2="100%"><stop offset="20%" stop-color="#003855" stop-opacity="1"></stop><stop offset="80%" stop-color="#003855" stop-opacity="1"></stop></linearGradient></defs><defs><linearGradient id="grad2_1" x1="0%" y1="0%" x2="66.7%" y2="100%"><stop offset="20%" stop-color="#006281" stop-opacity="1"></stop><stop offset="80%" stop-color="#003855" stop-opacity="1"></stop></linearGradient></defs><defs><linearGradient id="grad2_2" x1="0%" y1="0%" x2="66.7%" y2="100%"><stop offset="20%" stop-color="#006281" stop-opacity="1"></stop><stop offset="80%" stop-color="#008f95" stop-opacity="1"></stop></linearGradient></defs><defs><linearGradient id="grad2_3" x1="0%" y1="0%" x2="66.7%" y2="100%"><stop offset="20%" stop-color="#00ba8d" stop-opacity="1"></stop><stop offset="80%" stop-color="#008f95" stop-opacity="1"></stop></linearGradient></defs><defs><linearGradient id="grad2_4" x1="0%" y1="0%" x2="66.7%" y2="100%"><stop offset="20%" stop-color="#00ba8d" stop-opacity="1"></stop><stop offset="80%" stop-color="#67e26d" stop-opacity="1"></stop></linearGradient></defs><g transform="translate(900, 0)"><path d="M0 540.8C-34 495.3 -68.1 449.8 -97.2 426C-126.4 402.3 -150.7 400.3 -198.7 412.6C-246.7 425 -318.5 451.6 -337.2 422.8C-355.9 394.1 -321.5 309.9 -339.3 270.6C-357.1 231.3 -427.1 236.9 -444.2 213.9C-461.3 190.9 -425.6 139.2 -432.9 98.8C-440.2 58.4 -490.5 29.2 -540.8 0L0 0Z" fill="#00cf7f"></path><path d="M0 432.7C-27.2 396.3 -54.5 359.8 -77.8 340.8C-101.1 321.8 -120.6 320.3 -159 330.1C-197.4 340 -254.8 361.3 -269.8 338.3C-284.7 315.3 -257.2 247.9 -271.5 216.5C-285.7 185 -341.7 189.5 -355.3 171.1C-369 152.7 -340.5 111.4 -346.3 79C-352.1 46.7 -392.4 23.4 -432.7 0L0 0Z" fill="#00a595"></path><path d="M0 324.5C-20.4 297.2 -40.8 269.9 -58.3 255.6C-75.8 241.4 -90.4 240.2 -119.2 247.6C-148 255 -191.1 271 -202.3 253.7C-213.5 236.4 -192.9 185.9 -203.6 162.4C-214.3 138.8 -256.2 142.2 -266.5 128.3C-276.8 114.5 -255.3 83.5 -259.7 59.3C-264.1 35 -294.3 17.5 -324.5 0L0 0Z" fill="#00788f"></path><path d="M0 216.3C-13.6 198.1 -27.2 179.9 -38.9 170.4C-50.6 160.9 -60.3 160.1 -79.5 165.1C-98.7 170 -127.4 180.6 -134.9 169.1C-142.4 157.6 -128.6 124 -135.7 108.2C-142.8 92.5 -170.8 94.8 -177.7 85.6C-184.5 76.4 -170.2 55.7 -173.1 39.5C-176.1 23.4 -196.2 11.7 -216.3 0L0 0Z" fill="#004c6d"></path><path d="M0 108.2C-6.8 99.1 -13.6 90 -19.4 85.2C-25.3 80.5 -30.1 80.1 -39.7 82.5C-49.3 85 -63.7 90.3 -67.4 84.6C-71.2 78.8 -64.3 62 -67.9 54.1C-71.4 46.3 -85.4 47.4 -88.8 42.8C-92.3 38.2 -85.1 27.8 -86.6 19.8C-88 11.7 -98.1 5.8 -108.2 0L0 0Z" fill="#003855"></path></g><g transform="translate(0, 600)"><path d="M0 -540.8C32.1 -508.3 64.2 -475.8 108.8 -476.7C153.4 -477.7 210.5 -512.2 234.7 -487.3C258.8 -462.3 250 -378 275 -344.8C299.9 -311.6 358.6 -329.5 398.7 -318C438.9 -306.4 460.5 -265.5 468.5 -225.6C476.5 -185.8 470.9 -147.1 480.6 -109.7C490.4 -72.3 515.6 -36.1 540.8 0L0 0Z" fill="#00cf7f"></path><path d="M0 -432.7C25.7 -406.6 51.4 -380.6 87.1 -381.4C122.7 -382.2 168.4 -409.8 187.7 -389.8C207 -369.9 200 -302.4 220 -275.8C239.9 -249.3 286.9 -263.6 319 -254.4C351.1 -245.2 368.4 -212.4 374.8 -180.5C381.2 -148.6 376.7 -117.7 384.5 -87.8C392.3 -57.8 412.5 -28.9 432.7 0L0 0Z" fill="#00a595"></path><path d="M0 -324.5C19.3 -305 38.5 -285.5 65.3 -286C92 -286.6 126.3 -307.3 140.8 -292.4C155.3 -277.4 150 -226.8 165 -206.9C179.9 -186.9 215.1 -197.7 239.2 -190.8C263.3 -183.9 276.3 -159.3 281.1 -135.4C285.9 -111.5 282.5 -88.3 288.4 -65.8C294.3 -43.4 309.4 -21.7 324.5 0L0 0Z" fill="#00788f"></path><path d="M0 -216.3C12.8 -203.3 25.7 -190.3 43.5 -190.7C61.4 -191.1 84.2 -204.9 93.9 -194.9C103.5 -184.9 100 -151.2 110 -137.9C120 -124.6 143.4 -131.8 159.5 -127.2C175.6 -122.6 184.2 -106.2 187.4 -90.2C190.6 -74.3 188.3 -58.8 192.3 -43.9C196.2 -28.9 206.3 -14.5 216.3 0L0 0Z" fill="#004c6d"></path><path d="M0 -108.2C6.4 -101.7 12.8 -95.2 21.8 -95.3C30.7 -95.5 42.1 -102.4 46.9 -97.5C51.8 -92.5 50 -75.6 55 -69C60 -62.3 71.7 -65.9 79.7 -63.6C87.8 -61.3 92.1 -53.1 93.7 -45.1C95.3 -37.2 94.2 -29.4 96.1 -21.9C98.1 -14.5 103.1 -7.2 108.2 0L0 0Z" fill="#003855"></path></g></svg>