<svg id="visual" viewBox="0 0 900 600" width="900" height="600" xmlns="http://www.w3.org/2000/svg" xmlns:xlink="http://www.w3.org/1999/xlink" version="1.1"><rect x="0" y="0" width="900" height="600" fill="#001220"></rect><path d="M125 600L133.3 587.5C141.7 575 158.3 550 167.8 525C177.3 500 179.7 475 169.7 450C159.7 425 137.3 400 144 375C150.7 350 186.3 325 195 300C203.7 275 185.3 250 163.7 225C142 200 117 175 103 150C89 125 86 100 99.8 75C113.7 50 144.3 25 159.7 12.5L175 0L900 0L900 12.5C900 25 900 50 900 75C900 100 900 125 900 150C900 175 900 200 900 225C900 250 900 275 900 300C900 325 900 350 900 375C900 400 900 425 900 450C900 475 900 500 900 525C900 550 900 575 900 587.5L900 600Z" fill="#003855"></path><path d="M162 600L181.2 587.5C200.3 575 238.7 550 241.7 525C244.7 500 212.3 475 192 450C171.7 425 163.3 400 164.2 375C165 350 175 325 174.5 300C174 275 163 250 175 225C187 200 222 175 243.3 150C264.7 125 272.3 100 266.5 75C260.7 50 241.3 25 231.7 12.5L222 0L900 0L900 12.5C900 25 900 50 900 75C900 100 900 125 900 150C900 175 900 200 900 225C900 250 900 275 900 300C900 325 900 350 900 375C900 400 900 425 900 450C900 475 900 500 900 525C900 550 900 575 900 587.5L900 600Z" fill="#004865"></path><path d="M330 600L312.5 587.5C295 575 260 550 248.5 525C237 500 249 475 250.3 450C251.7 425 242.3 400 250.5 375C258.7 350 284.3 325 292.8 300C301.3 275 292.7 250 291.7 225C290.7 200 297.3 175 308.2 150C319 125 334 100 339.8 75C345.7 50 342.3 25 340.7 12.5L339 0L900 0L900 12.5C900 25 900 50 900 75C900 100 900 125 900 150C900 175 900 200 900 225C900 250 900 275 900 300C900 325 900 350 900 375C900 400 900 425 900 450C900 475 900 500 900 525C900 550 900 575 900 587.5L900 600Z" fill="#005a74"></path><path d="M415 600L410.3 587.5C405.7 575 396.3 550 379.8 525C363.3 500 339.7 475 342.8 450C346 425 376 400 389 375C402 350 398 325 389 300C380 275 366 250 369.3 225C372.7 200 393.3 175 401 150C408.7 125 403.3 100 392 75C380.7 50 363.3 25 354.7 12.5L346 0L900 0L900 12.5C900 25 900 50 900 75C900 100 900 125 900 150C900 175 900 200 900 225C900 250 900 275 900 300C900 325 900 350 900 375C900 400 900 425 900 450C900 475 900 500 900 525C900 550 900 575 900 587.5L900 600Z" fill="#006b81"></path><path d="M413 600L407.8 587.5C402.7 575 392.3 550 395.7 525C399 500 416 475 430.3 450C444.7 425 456.3 400 453.7 375C451 350 434 325 425.7 300C417.3 275 417.7 250 414.2 225C410.7 200 403.3 175 399.7 150C396 125 396 100 403.2 75C410.3 50 424.7 25 431.8 12.5L439 0L900 0L900 12.5C900 25 900 50 900 75C900 100 900 125 900 150C900 175 900 200 900 225C900 250 900 275 900 300C900 325 900 350 900 375C900 400 900 425 900 450C900 475 900 500 900 525C900 550 900 575 900 587.5L900 600Z" fill="#007d8c"></path><path d="M472 600L471.5 587.5C471 575 470 550 470.3 525C470.7 500 472.3 475 478.2 450C484 425 494 400 493.8 375C493.7 350 483.3 325 481 300C478.7 275 484.3 250 487.3 225C490.3 200 490.7 175 499.3 150C508 125 525 100 516.3 75C507.7 50 473.3 25 456.2 12.5L439 0L900 0L900 12.5C900 25 900 50 900 75C900 100 900 125 900 150C900 175 900 200 900 225C900 250 900 275 900 300C900 325 900 350 900 375C900 400 900 425 900 450C900 475 900 500 900 525C900 550 900 575 900 587.5L900 600Z" fill="#008f95"></path><path d="M512 600L521.5 587.5C531 575 550 550 552.7 525C555.3 500 541.7 475 541.8 450C542 425 556 400 568 375C580 350 590 325 590.8 300C591.7 275 583.3 250 570.7 225C558 200 541 175 531 150C521 125 518 100 530.2 75C542.3 50 569.7 25 583.3 12.5L597 0L900 0L900 12.5C900 25 900 50 900 75C900 100 900 125 900 150C900 175 900 200 900 225C900 250 900 275 900 300C900 325 900 350 900 375C900 400 900 425 900 450C900 475 900 500 900 525C900 550 900 575 900 587.5L900 600Z" fill="#00a19a"></path><path d="M655 600L656.5 587.5C658 575 661 550 661.5 525C662 500 660 475 658 450C656 425 654 400 647.8 375C641.7 350 631.3 325 625 300C618.7 275 616.3 250 622.2 225C628 200 642 175 650.2 150C658.3 125 660.7 100 650.2 75C639.7 50 616.3 25 604.7 12.5L593 0L900 0L900 12.5C900 25 900 50 900 75C900 100 900 125 900 150C900 175 900 200 900 225C900 250 900 275 900 300C900 325 900 350 900 375C900 400 900 425 900 450C900 475 900 500 900 525C900 550 900 575 900 587.5L900 600Z" fill="#00b399"></path><path d="M726 600L721.7 587.5C717.3 575 708.7 550 707.7 525C706.7 500 713.3 475 712.2 450C711 425 702 400 691.8 375C681.7 350 670.3 325 674.8 300C679.3 275 699.7 250 703.7 225C707.7 200 695.3 175 688.8 150C682.3 125 681.7 100 682.3 75C683 50 685 25 686 12.5L687 0L900 0L900 12.5C900 25 900 50 900 75C900 100 900 125 900 150C900 175 900 200 900 225C900 250 900 275 900 300C900 325 900 350 900 375C900 400 900 425 900 450C900 475 900 500 900 525C900 550 900 575 900 587.5L900 600Z" fill="#00c490"></path><path d="M795 600L790.3 587.5C785.7 575 776.3 550 770.5 525C764.7 500 762.3 475 758.2 450C754 425 748 400 749.2 375C750.3 350 758.7 325 759.3 300C760 275 753 250 750 225C747 200 748 175 756.8 150C765.7 125 782.3 100 779 75C775.7 50 752.3 25 740.7 12.5L729 0L900 0L900 12.5C900 25 900 50 900 75C900 100 900 125 900 150C900 175 900 200 900 225C900 250 900 275 900 300C900 325 900 350 900 375C900 400 900 425 900 450C900 475 900 500 900 525C900 550 900 575 900 587.5L900 600Z" fill="#34d381"></path><path d="M806 600L807.5 587.5C809 575 812 550 816.8 525C821.7 500 828.3 475 831.7 450C835 425 835 400 832 375C829 350 823 325 826 300C829 275 841 250 841.8 225C842.7 200 832.3 175 832.8 150C833.3 125 844.7 100 845.5 75C846.3 50 836.7 25 831.8 12.5L827 0L900 0L900 12.5C900 25 900 50 900 75C900 100 900 125 900 150C900 175 900 200 900 225C900 250 900 275 900 300C900 325 900 350 900 375C900 400 900 425 900 450C900 475 900 500 900 525C900 550 900 575 900 587.5L900 600Z" fill="#67e26d"></path></svg>