<svg id="visual" viewBox="0 0 900 600" width="900" height="600" xmlns="http://www.w3.org/2000/svg" xmlns:xlink="http://www.w3.org/1999/xlink" version="1.1"><rect x="0" y="0" width="900" height="600" fill="#001220"></rect><path d="M0 516L18.8 510.5C37.7 505 75.3 494 112.8 487.7C150.3 481.3 187.7 479.7 225.2 486.3C262.7 493 300.3 508 337.8 503.7C375.3 499.3 412.7 475.7 450.2 469.8C487.7 464 525.3 476 562.8 490.3C600.3 504.7 637.7 521.3 675.2 530.8C712.7 540.3 750.3 542.7 787.8 533.5C825.3 524.3 862.7 503.7 881.3 493.3L900 483L900 0L881.3 0C862.7 0 825.3 0 787.8 0C750.3 0 712.7 0 675.2 0C637.7 0 600.3 0 562.8 0C525.3 0 487.7 0 450.2 0C412.7 0 375.3 0 337.8 0C300.3 0 262.7 0 225.2 0C187.7 0 150.3 0 112.8 0C75.3 0 37.7 0 18.8 0L0 0Z" fill="#003855"></path><path d="M0 492L18.8 479.2C37.7 466.3 75.3 440.7 112.8 438.7C150.3 436.7 187.7 458.3 225.2 472C262.7 485.7 300.3 491.3 337.8 490.7C375.3 490 412.7 483 450.2 483.3C487.7 483.7 525.3 491.3 562.8 483.3C600.3 475.3 637.7 451.7 675.2 437.3C712.7 423 750.3 418 787.8 421.8C825.3 425.7 862.7 438.3 881.3 444.7L900 451L900 0L881.3 0C862.7 0 825.3 0 787.8 0C750.3 0 712.7 0 675.2 0C637.7 0 600.3 0 562.8 0C525.3 0 487.7 0 450.2 0C412.7 0 375.3 0 337.8 0C300.3 0 262.7 0 225.2 0C187.7 0 150.3 0 112.8 0C75.3 0 37.7 0 18.8 0L0 0Z" fill="#004865"></path><path d="M0 379L18.8 390.7C37.7 402.3 75.3 425.7 112.8 433.5C150.3 441.3 187.7 433.7 225.2 433C262.7 432.3 300.3 438.7 337.8 433.2C375.3 427.7 412.7 410.3 450.2 404.7C487.7 399 525.3 405 562.8 405.7C600.3 406.3 637.7 401.7 675.2 394.3C712.7 387 750.3 377 787.8 373.2C825.3 369.3 862.7 371.7 881.3 372.8L900 374L900 0L881.3 0C862.7 0 825.3 0 787.8 0C750.3 0 712.7 0 675.2 0C637.7 0 600.3 0 562.8 0C525.3 0 487.7 0 450.2 0C412.7 0 375.3 0 337.8 0C300.3 0 262.7 0 225.2 0C187.7 0 150.3 0 112.8 0C75.3 0 37.7 0 18.8 0L0 0Z" fill="#005a74"></path><path d="M0 323L18.8 326C37.7 329 75.3 335 112.8 346C150.3 357 187.7 373 225.2 371C262.7 369 300.3 349 337.8 340.3C375.3 331.7 412.7 334.3 450.2 340.3C487.7 346.3 525.3 355.7 562.8 353.5C600.3 351.3 637.7 337.7 675.2 332.5C712.7 327.3 750.3 330.7 787.8 338.2C825.3 345.7 862.7 357.3 881.3 363.2L900 369L900 0L881.3 0C862.7 0 825.3 0 787.8 0C750.3 0 712.7 0 675.2 0C637.7 0 600.3 0 562.8 0C525.3 0 487.7 0 450.2 0C412.7 0 375.3 0 337.8 0C300.3 0 262.7 0 225.2 0C187.7 0 150.3 0 112.8 0C75.3 0 37.7 0 18.8 0L0 0Z" fill="#006b81"></path><path d="M0 324L18.8 327.5C37.7 331 75.3 338 112.8 335.8C150.3 333.7 187.7 322.3 225.2 312.8C262.7 303.3 300.3 295.7 337.8 297.5C375.3 299.3 412.7 310.7 450.2 316.2C487.7 321.7 525.3 321.3 562.8 323.7C600.3 326 637.7 331 675.2 333.5C712.7 336 750.3 336 787.8 331.2C825.3 326.3 862.7 316.7 881.3 311.8L900 307L900 0L881.3 0C862.7 0 825.3 0 787.8 0C750.3 0 712.7 0 675.2 0C637.7 0 600.3 0 562.8 0C525.3 0 487.7 0 450.2 0C412.7 0 375.3 0 337.8 0C300.3 0 262.7 0 225.2 0C187.7 0 150.3 0 112.8 0C75.3 0 37.7 0 18.8 0L0 0Z" fill="#007d8c"></path><path d="M0 285L18.8 285.3C37.7 285.7 75.3 286.3 112.8 286.2C150.3 286 187.7 285 225.2 281.2C262.7 277.3 300.3 270.7 337.8 270.7C375.3 270.7 412.7 277.3 450.2 278.8C487.7 280.3 525.3 276.7 562.8 274.8C600.3 273 637.7 273 675.2 267.2C712.7 261.3 750.3 249.7 787.8 255.3C825.3 261 862.7 284 881.3 295.5L900 307L900 0L881.3 0C862.7 0 825.3 0 787.8 0C750.3 0 712.7 0 675.2 0C637.7 0 600.3 0 562.8 0C525.3 0 487.7 0 450.2 0C412.7 0 375.3 0 337.8 0C300.3 0 262.7 0 225.2 0C187.7 0 150.3 0 112.8 0C75.3 0 37.7 0 18.8 0L0 0Z" fill="#008f95"></path><path d="M0 258L18.8 251.7C37.7 245.3 75.3 232.7 112.8 231C150.3 229.3 187.7 238.7 225.2 238.7C262.7 238.7 300.3 229.3 337.8 221.3C375.3 213.3 412.7 206.7 450.2 206C487.7 205.3 525.3 210.7 562.8 219C600.3 227.3 637.7 238.7 675.2 245.3C712.7 252 750.3 254 787.8 246C825.3 238 862.7 220 881.3 211L900 202L900 0L881.3 0C862.7 0 825.3 0 787.8 0C750.3 0 712.7 0 675.2 0C637.7 0 600.3 0 562.8 0C525.3 0 487.7 0 450.2 0C412.7 0 375.3 0 337.8 0C300.3 0 262.7 0 225.2 0C187.7 0 150.3 0 112.8 0C75.3 0 37.7 0 18.8 0L0 0Z" fill="#00a19a"></path><path d="M0 163L18.8 162C37.7 161 75.3 159 112.8 158.7C150.3 158.3 187.7 159.7 225.2 161C262.7 162.3 300.3 163.7 337.8 167.7C375.3 171.7 412.7 178.3 450.2 182.7C487.7 187 525.3 189 562.8 185.2C600.3 181.3 637.7 171.7 675.2 166.2C712.7 160.7 750.3 159.3 787.8 166.3C825.3 173.3 862.7 188.7 881.3 196.3L900 204L900 0L881.3 0C862.7 0 825.3 0 787.8 0C750.3 0 712.7 0 675.2 0C637.7 0 600.3 0 562.8 0C525.3 0 487.7 0 450.2 0C412.7 0 375.3 0 337.8 0C300.3 0 262.7 0 225.2 0C187.7 0 150.3 0 112.8 0C75.3 0 37.7 0 18.8 0L0 0Z" fill="#00b399"></path><path d="M0 116L18.8 118.8C37.7 121.7 75.3 127.3 112.8 128C150.3 128.7 187.7 124.3 225.2 125.2C262.7 126 300.3 132 337.8 138.8C375.3 145.7 412.7 153.3 450.2 150.2C487.7 147 525.3 133 562.8 130.2C600.3 127.3 637.7 135.7 675.2 140.2C712.7 144.7 750.3 145.3 787.8 145C825.3 144.7 862.7 143.3 881.3 142.7L900 142L900 0L881.3 0C862.7 0 825.3 0 787.8 0C750.3 0 712.7 0 675.2 0C637.7 0 600.3 0 562.8 0C525.3 0 487.7 0 450.2 0C412.7 0 375.3 0 337.8 0C300.3 0 262.7 0 225.2 0C187.7 0 150.3 0 112.8 0C75.3 0 37.7 0 18.8 0L0 0Z" fill="#00c490"></path><path d="M0 70L18.8 73.2C37.7 76.3 75.3 82.7 112.8 86.5C150.3 90.3 187.7 91.7 225.2 94.3C262.7 97 300.3 101 337.8 100.2C375.3 99.3 412.7 93.7 450.2 93.2C487.7 92.7 525.3 97.3 562.8 99.3C600.3 101.3 637.7 100.7 675.2 94.8C712.7 89 750.3 78 787.8 80.2C825.3 82.3 862.7 97.7 881.3 105.3L900 113L900 0L881.3 0C862.7 0 825.3 0 787.8 0C750.3 0 712.7 0 675.2 0C637.7 0 600.3 0 562.8 0C525.3 0 487.7 0 450.2 0C412.7 0 375.3 0 337.8 0C300.3 0 262.7 0 225.2 0C187.7 0 150.3 0 112.8 0C75.3 0 37.7 0 18.8 0L0 0Z" fill="#34d381"></path><path d="M0 62L18.8 61C37.7 60 75.3 58 112.8 54.8C150.3 51.7 187.7 47.3 225.2 45.2C262.7 43 300.3 43 337.8 45C375.3 47 412.7 51 450.2 49C487.7 47 525.3 39 562.8 38.5C600.3 38 637.7 45 675.2 44.7C712.7 44.3 750.3 36.7 787.8 36C825.3 35.3 862.7 41.7 881.3 44.8L900 48L900 0L881.3 0C862.7 0 825.3 0 787.8 0C750.3 0 712.7 0 675.2 0C637.7 0 600.3 0 562.8 0C525.3 0 487.7 0 450.2 0C412.7 0 375.3 0 337.8 0C300.3 0 262.7 0 225.2 0C187.7 0 150.3 0 112.8 0C75.3 0 37.7 0 18.8 0L0 0Z" fill="#67e26d"></path></svg>