<svg id="visual" viewBox="0 0 900 600" width="900" height="600" xmlns="http://www.w3.org/2000/svg" xmlns:xlink="http://www.w3.org/1999/xlink" version="1.1"><rect x="0" y="0" width="900" height="600" fill="#aad8ad"></rect><path d="M0 121L129 260L257 278L386 165L514 158L643 145L771 184L900 270L900 601L771 601L643 601L514 601L386 601L257 601L129 601L0 601Z" fill="#003855"></path><path d="M0 283L129 352L257 199L386 216L514 340L643 283L771 345L900 202L900 601L771 601L643 601L514 601L386 601L257 601L129 601L0 601Z" fill="#00556d"></path><path d="M0 328L129 333L257 277L386 366L514 373L643 357L771 418L900 279L900 601L771 601L643 601L514 601L386 601L257 601L129 601L0 601Z" fill="#00737f"></path><path d="M0 416L129 472L257 409L386 472L514 417L643 467L771 422L900 365L900 601L771 601L643 601L514 601L386 601L257 601L129 601L0 601Z" fill="#00907f"></path><path d="M0 501L129 462L257 478L386 536L514 462L643 492L771 494L900 517L900 601L771 601L643 601L514 601L386 601L257 601L129 601L0 601Z" fill="#13aa5f"></path></svg>